# xmcd CD database file
#
# Track frame offsets:
#	150
#	13525
#	28306
#	42636
#	57061
#	76312
#	89875
#	102951
#	121088
#	135097
#	180603
#	193024
#	207270
#
# Disc length: 2944 seconds
#
# Revision: 1
# Processed by: cddbd v1.5.1PL2 Copyright (c) Steve Scherf et al.
# Submitted via: CDex 1.51
#
DISCID=ac0b7e0d
DTITLE=St. Thomas - Children Of The New Brigade
DYEAR=2006
DGENRE=Indie
TTITLE0=LA Man
TTITLE1=Last Word
TTITLE2=Of Course You Were There
TTITLE3=Morning Dancer
TTITLE4=Instrument sound
TTITLE5=The Long Goodnights
TTITLE6=Children Of The New Brigade
TTITLE7=Dream On
TTITLE8=Twisted Cowboy
TTITLE9=Sheer Wonder
TTITLE10=The Play
TTITLE11=The Mexican Father
TTITLE12=Book On Hold
EXTD=YEAR: 2006
EXTT0=
EXTT1=
EXTT2=
EXTT3=
EXTT4=
EXTT5=
EXTT6=
EXTT7=
EXTT8=
EXTT9=
EXTT10=
EXTT11=
EXTT12=
PLAYORDER=
